:FULLY-SPECIFIED
:FORCE-ALL-JOINTS-BE-3DOF
:DEGREES
102
root 7.40018 16.6708 -26.7229 4.18394 10.5349 -3.99618
lfemur -27.4445 -4.54782 -10.4619
ltibia 39.4167 0 0
lfoot -18.5278 -3.15132 0
ltoes 16.6561 0 0
rfemur -31.637 -9.44833 7.99414
rtibia 73.1967 0 0
rfoot 14.3743 18.4718 0
rtoes -4.47722 0 0
lowerback 0.641988 2.13995 0.900333
upperback -1.34491 2.89473 1.86536
thorax -1.78421 1.44976 1.35059
lowerneck -10.3811 -4.91746 2.41502
upperneck -0.919485 -6.82308 0.942456
head 1.40453 -3.37667 -0.398878
lclavicle 2.018e-14 -2.52198e-14 0
lhumerus -46.9855 -8.02273 93.3538
lradius 48.5052 0 0
lwrist 15.7755 0 0
lhand 7.00846 8.47005 0
lfingers 7.12502 0 0
lthumb 32.2827 35.6093 0
rclavicle 2.018e-14 -2.52198e-14 0
rhumerus -42.7563 0.165956 -72.5653
rradius 50.7084 0 0
rwrist -1.80952 0 0
rhand -18.1207 -13.3808 0
rfingers 7.12502 0 0
rthumb 8.15373 -43.2005 0
103
root 7.44943 16.683 -26.6981 3.72635 10.8077 -3.68498
lfemur -26.6291 -4.19081 -11.1339
ltibia 38.9419 0 0
lfoot -18.4774 -4.10428 0
ltoes 18.1554 0 0
rfemur -33.8811 -8.54883 6.50272
rtibia 77.2746 0 0
rfoot 20.088 21.3439 0
rtoes 0.193009 0 0
lowerback 1.07787 1.97631 0.590622
upperback -1.19022 2.68334 1.89526
thorax -1.88776 1.34802 1.53864
lowerneck -10.4598 -4.92423 2.36605
upperneck -0.714847 -6.83288 0.920058
head 1.48527 -3.37885 -0.405206
lclavicle 2.21769e-14 -2.76311e-14 0
lhumerus -47.0891 -8.41949 93.5721
lradius 48.7876 0 0
lwrist 16.0762 0 0
lhand 7.63846 9.00616 0
lfingers 7.12502 0 0
lthumb 32.8832 36.0309 0
rclavicle 2.21769e-14 -2.76311e-14 0
rhumerus -42.8547 0.298152 -71.5966
rradius 50.7095 0 0
rwrist -1.6945 0 0
rhand -18.6097 -13.5435 0
rfingers 7.12502 0 0
rthumb 7.68192 -43.384 0
104
root 7.47167 16.6975 -26.6835 3.01174 11.3085 -3.57349
lfemur -25.6853 -3.7209 -11.5186
ltibia 38.5049 0 0
lfoot -18.0872 -5.10107 0
ltoes 20.0779 0 0
rfemur -36.1342 -7.51147 4.86485
rtibia 80.5226 0 0
rfoot 22.7825 21.2769 0
rtoes 3.77074 0 0
lowerback 1.74994 1.69093 0.416978
upperback -0.899042 2.29992 1.94862
thorax -1.95762 1.15761 1.70113
lowerneck -10.5215 -4.89183 2.29597
upperneck -0.621045 -6.78392 0.881468
head 1.52855 -3.35433 -0.407545
lclavicle 1.44424e-14 -2.40953e-14 0
lhumerus -46.8431 -9.10465 93.6387
lradius 48.7892 0 0
lwrist 15.7336 0 0
lhand 7.76822 8.82571 0
lfingers 7.12502 0 0
lthumb 33.0066 35.8241 0
rclavicle 1.44424e-14 -2.40953e-14 0
rhumerus -42.8589 0.598539 -70.8925
rradius 50.7062 0 0
rwrist 0.312775 0 0
rhand -19.532 -14.3566 0
rfingers 7.12502 0 0
rthumb 6.79134 -44.2175 0
105
root 7.49549 16.713 -26.6678 2.2467 11.8446 -3.45414
lfemur -24.6748 -3.21782 -11.9304
ltibia 38.037 0 0
lfoot -17.6694 -6.16821 0
ltoes 22.1361 0 0
rfemur -38.5464 -6.40088 3.11136
rtibia 83.9999 0 0
rfoot 25.6671 21.2052 0
rtoes 7.60101 0 0
lowerback 2.46945 1.3854 0.231076
upperback -0.58731 1.88943 2.00576
thorax -2.03242 0.953759 1.87508
lowerneck -10.5875 -4.85714 2.22093
upperneck -0.520621 -6.7315 0.840155
head 1.57489 -3.32809 -0.410049
lclavicle 6.16185e-15 -2.03099e-14 0
lhumerus -46.5798 -9.83818 93.71
lradius 48.7908 0 0
lwrist 15.3668 0 0
lhand 7.90714 8.63251 0
lfingers 7.12502 0 0
lthumb 33.1387 35.6026 0
rclavicle 6.16185e-15 -2.03099e-14 0
rhumerus -42.8634 0.920129 -70.1387
rradius 50.7026 0 0
rwrist 2.46174 0 0
rhand -20.5195 -15.227 0
rfingers 7.12502 0 0
rthumb 5.83789 -45.1098 0
106
root 7.52009 16.729 -26.6517 1.45643 12.3984 -3.33085
lfemur -23.631 -2.69815 -12.3559
ltibia 37.5537 0 0
lfoot -17.2378 -7.27054 0
ltoes 24.2621 0 0
rfemur -41.0381 -5.25369 1.30006
rtibia 87.5919 0 0
rfoot 28.6469 21.1312 0
rtoes 11.5576 0 0
lowerback 3.21268 1.0698 0.0390455
upperback -0.265301 1.46541 2.06477
thorax -2.10967 0.743188 2.05478
lowerneck -10.6557 -4.8213 2.14343
upperneck -0.416887 -6.67736 0.797479
head 1.62275 -3.30097 -0.412635
lclavicle -2.39165e-15 -1.63997e-14 0
lhumerus -46.3078 -10.5959 93.7837
lradius 48.7925 0 0
lwrist 14.9878 0 0
lhand 8.05063 8.43295 0
lfingers 7.12502 0 0
lthumb 33.2751 35.3738 0
rclavicle -2.39165e-15 -1.63997e-14 0
rhumerus -42.868 1.25232 -69.3601
rradius 50.6989 0 0
rwrist 4.68155 0 0
rhand -21.5395 -16.1262 0
rfingers 7.12502 0 0
rthumb 4.853 -46.0315 0
107
root 7.54469 16.7449 -26.6355 0.666156 12.9521 -3.20755
lfemur -22.5872 -2.17849 -12.7813
ltibia 37.0705 0 0
lfoot -16.8062 -8.37287 0
ltoes 26.3882 0 0
rfemur -43.5297 -4.10649 -0.511236
rtibia 91.1838 0 0
rfoot 31.6266 21.0571 0
rtoes 15.5141 0 0
lowerback 3.9559 0.754195 -0.152985
upperback 0.0567085 1.04139 2.12378
thorax -2.18693 0.532616 2.23447
lowerneck -10.724 -4.78547 2.06593
upperneck -0.313153 -6.62322 0.754803
head 1.67061 -3.27386 -0.415221
lclavicle -1.09451e-14 -1.24896e-14 0
lhumerus -46.0357 -11.3536 93.8574
lradius 48.7943 0 0
lwrist 14.6089 0 0
lhand 8.19413 8.23339 0
lfingers 7.12502 0 0
lthumb 33.4115 35.1451 0
rclavicle -1.09451e-14 -1.24896e-14 0
rhumerus -42.8726 1.58451 -68.5814
rradius 50.6953 0 0
rwrist 6.90136 0 0
rhand -22.5595 -17.0254 0
rfingers 7.12502 0 0
rthumb 3.86812 -46.9532 0
108
root 7.56851 16.7604 -26.6198 -0.0988923 13.4882 -3.0882
lfemur -21.5767 -1.67541 -13.1931
ltibia 36.6026 0 0
lfoot -16.3884 -9.44001 0
ltoes 28.4464 0 0
rfemur -45.9419 -2.9959 -2.26473
rtibia 94.6611 0 0
rfoot 34.5112 20.9854 0
rtoes 19.3444 0 0
lowerback 4.67541 0.448666 -0.338887
upperback 0.368441 0.630899 2.18092
thorax -2.26173 0.328765 2.40842
lowerneck -10.79 -4.75078 1.99089
upperneck -0.212729 -6.5708 0.71349
head 1.71695 -3.24762 -0.417725
lclavicle -1.92257e-14 -8.7042e-15 0
lhumerus -45.7724 -12.0871 93.9287
lradius 48.7959 0 0
lwrist 14.2421 0 0
lhand 8.33305 8.0402 0
lfingers 7.12502 0 0
lthumb 33.5436 34.9236 0
rclavicle -1.92257e-14 -8.7042e-15 0
rhumerus -42.8771 1.9061 -67.8276
rradius 50.6917 0 0
rwrist 9.05033 0 0
rhand -23.547 -17.8958 0
rfingers 7.12502 0 0
rthumb 2.91467 -47.8455 0
109
root 7.59075 16.7749 -26.6052 -0.813498 13.989 -2.97671
lfemur -20.6329 -1.2055 -13.5778
ltibia 36.1656 0 0
lfoot -15.9982 -10.4368 0
ltoes 30.3689 0 0
rfemur -48.195 -1.95854 -3.9026
rtibia 97.9091 0 0
rfoot 37.2057 20.9184 0
rtoes 22.9221 0 0
lowerback 5.34748 0.163282 -0.512531
upperback 0.659619 0.247476 2.23428
thorax -2.33159 0.138355 2.57091
lowerneck -10.8517 -4.71838 1.92081
upperneck -0.118927 -6.52184 0.6749
head 1.76023 -3.2231 -0.420064
lclavicle -2.69602e-14 -5.1684e-15 0
lhumerus -45.5264 -12.7723 93.9953
lradius 48.7975 0 0
lwrist 13.8995 0 0
lhand 8.46281 7.85974 0
lfingers 7.12502 0 0
lthumb 33.667 34.7168 0
rclavicle -2.69602e-14 -5.1684e-15 0
rhumerus -42.8813 2.20649 -67.1235
rradius 50.6884 0 0
rwrist 11.0576 0 0
rhand -24.4693 -18.7089 0
rfingers 7.12502 0 0
rthumb 2.02409 -48.679 0
110
root 7.61395 16.8011 -26.6021 -1.60473 14.3759 -3.04832
lfemur -19.5296 -0.894047 -13.7189
ltibia 35.5371 0 0
lfoot -15.4599 -10.8169 0
ltoes 31.0942 0 0
rfemur -49.7338 -1.70078 -4.78384
rtibia 97.3541 0 0
rfoot 36.2336 18.3271 0
rtoes 24.0456 0 0
lowerback 6.1026 -0.119051 -0.437881
upperback 0.967988 -0.115659 2.29535
thorax -2.41473 -0.0435253 2.6382
lowerneck -10.9461 -4.65054 1.8505
upperneck -0.00938719 -6.42412 0.61307
head 1.81479 -3.17531 -0.428154
lclavicle -3.27606e-14 -2.10196e-15 0
lhumerus -44.9151 -12.9726 93.8791
lradius 48.4459 0 0
lwrist 13.6031 0 0
lhand 8.24661 7.64564 0
lfingers 7.12502 0 0
lthumb 33.4614 34.5461 0
rclavicle -3.27606e-14 -2.10196e-15 0
rhumerus -42.9829 2.41469 -66.4477
rradius 51.2168 0 0
rwrist 12.0858 0 0
rhand -23.8581 -18.9281 0
rfingers 7.12502 0 0
rthumb 2.61429 -48.8873 0
111
root 7.63878 16.8291 -26.5987 -2.45182 14.79 -3.12499
lfemur -18.3484 -0.560609 -13.8699
ltibia 34.8642 0 0
lfoot -14.8837 -11.2237 0
ltoes 31.8708 0 0
rfemur -51.3813 -1.42482 -5.72729
rtibia 96.76 0 0
rfoot 35.1928 15.5529 0
rtoes 25.2483 0 0
lowerback 6.91102 -0.421312 -0.357962
upperback 1.29812 -0.504427 2.36074
thorax -2.50375 -0.238244 2.71023
lowerneck -11.0472 -4.5779 1.77522
upperneck 0.107885 -6.3195 0.546876
head 1.87321 -3.12414 -0.436815
lclavicle -3.89705e-14 1.18093e-15 0
lhumerus -44.2607 -13.1871 93.7548
lradius 48.0696 0 0
lwrist 13.2859 0 0
lhand 8.01515 7.41643 0
lfingers 7.12502 0 0
lthumb 33.2412 34.3634 0
rclavicle -3.89705e-14 1.18093e-15 0
rhumerus -43.0916 2.63759 -65.7242
rradius 51.7825 0 0
rwrist 13.1866 0 0
rhand -23.2038 -19.1627 0
rfingers 7.12502 0 0
rthumb 3.24615 -49.1104 0
112
root 7.66443 16.858 -26.5952 -3.32684 15.2178 -3.20418
lfemur -17.1282 -0.216179 -14.0259
ltibia 34.1692 0 0
lfoot -14.2884 -11.644 0
ltoes 32.6729 0 0
rfemur -53.083 -1.13977 -6.70184
rtibia 96.1462 0 0
rfoot 34.1177 12.6872 0
rtoes 26.4908 0 0
lowerback 7.74609 -0.733539 -0.275407
upperback 1.63914 -0.906012 2.42828
thorax -2.5957 -0.439383 2.78464
lowerneck -11.1516 -4.50288 1.69747
upperneck 0.229023 -6.21143 0.4785
head 1.93355 -3.07129 -0.445761
lclavicle -4.5385e-14 4.57205e-15 0
lhumerus -43.5847 -13.4087 93.6264
lradius 47.6808 0 0
lwrist 12.9582 0 0
lhand 7.77607 7.17966 0
lfingers 7.12502 0 0
lthumb 33.0138 34.1746 0
rclavicle -4.5385e-14 4.57205e-15 0
rhumerus -43.204 2.86783 -64.9769
rradius 52.3668 0 0
rwrist 14.3238 0 0
rhand -22.5279 -19.4051 0
rfingers 7.12502 0 0
rthumb 3.89884 -49.3408 0
113
root 7.69008 16.8869 -26.5918 -4.20185 15.6457 -3.28337
lfemur -15.908 0.128251 -14.1819
ltibia 33.4741 0 0
lfoot -13.6931 -12.0644 0
ltoes 33.475 0 0
rfemur -54.7847 -0.854711 -7.6764
rtibia 95.5325 0 0
rfoot 33.0426 9.82156 0
rtoes 27.7332 0 0
lowerback 8.58116 -1.04577 -0.192853
upperback 1.98016 -1.3076 2.49581
thorax -2.68764 -0.640521 2.85905
lowerneck -11.256 -4.42785 1.61971
upperneck 0.350161 -6.10335 0.410123
head 1.99388 -3.01843 -0.454708
lclavicle -5.17996e-14 7.96317e-15 0
lhumerus -42.9087 -13.6303 93.4979
lradius 47.292 0 0
lwrist 12.6304 0 0
lhand 7.53698 6.94288 0
lfingers 7.12502 0 0
lthumb 32.7865 33.9859 0
rclavicle -5.17996e-14 7.96317e-15 0
rhumerus -43.3163 3.09808 -64.2296
rradius 52.9512 0 0
rwrist 15.4609 0 0
rhand -21.852 -19.6475 0
rfingers 7.12502 0 0
rthumb 4.55152 -49.5712 0
